<?xml version="1.0" encoding="UTF-8"?>
<svg width="256" height="256" version="1.1"
     xmlns="http://www.w3.org/2000/svg"
     xmlns:xlink="http://www.w3.org/1999/xlink">
  <defs>
    <linearGradient id="Gradient" x1="0" x2="0" y1="0" y2="1">
      <stop offset="0%" style="stop-color:#483E80;stop-opacity:1" />
      <stop offset="100%" style="stop-color:#000000;stop-opacity:1" />
    </linearGradient>
    <filter id="alpha-to-white">
      <feColorMatrix in="SourceGraphic" type="matrix"
                     values="0 0 0 0 1 0 0 0 0 1 0 0 0 0 1 0 0 0 1 0"/>
    </filter>
    <g id="child-svg"><svg xmlns="http://www.w3.org/2000/svg" xmlns:xlink="http://www.w3.org/1999/xlink" version="1.1" x="0px" y="0px" viewBox="0 0 301.2 288.1" style="enable-background:new 0 0 301.2 288.1;" xml:space="preserve" height="16px" width="16px">
    <style type="text/css">
    path {
        fill: #FFFFFF;
    }
    </style>
    <g id="Layer_2">
    </g>
    <g id="Layer_1">
        <path class="filled" d="M172.2,94.6c-0.1,13.4-10.8,24.1-24.1,24.1c-13.6,0-24.4-10.7-24.4-24.3c0-13.7,10.7-24.3,24.3-24.3 C161.8,70.1,172.3,80.9,172.2,94.6z" />
        <path class="filled" d="M74,49.2c14.6,0.1,34,15,38.5,29.3c0.5,1.6,0.2,2.9-0.3,4.3c-3.2,10.6-3.8,20.9,3.5,30.4 c0.9,1.2,2.2,3.1,0.5,4.5c-1.9,1.6-3.7,0.4-5.3-1.1c-9.3-8.5-11.8-19.1-9-30.9c1.1-4.6-0.1-7-3.5-9.5c-4.4-3.3-9.3-5.7-14.3-8 c-5-2.4-9.8-5-14-8.5c-2.3-1.9-4.8-4.2-3.4-7.6C68,48.8,71.2,49.2,74,49.2z" />
        <path class="filled" d="M221.7,49.1c2.6,0.2,6-0.4,7.2,2.8c1.3,3.6-1.3,6.1-3.8,8c-4.9,3.7-10.3,6.7-15.9,9.3c-4.7,2.1-9.2,4.6-13.2,8 c-2.4,2-3.4,3.8-2.5,7.2c3,11.5,1.1,22.1-7.5,30.9c-0.8,0.8-1.7,1.6-2.7,2.3c-1.2,0.8-2.6,1.1-3.7,0.3c-1.2-0.9-0.7-2.4-0.3-3.7 c0.2-0.5,0.5-0.9,0.8-1.3c6.9-9.2,6.5-19.2,3.4-29.5c-0.5-1.8-0.8-3.5-0.3-5.4C187.5,64.2,207.2,49.2,221.7,49.1z" />
        <path class="filled" d="M38.5,48.3c5.1,0,9.8,0.6,14.5,2c3.3,1,6.4,2.6,7.8,5.8c2,4.7,5.6,7.2,9.9,9.2c8.9,4.1,17.5,8.6,25.9,13.8 c2.1,1.3,3.5,2.5,2.2,5.1c-1.5,2.8-3.2,0.4-4.6-0.1C80,78.6,65.3,75.2,50.8,71.2c-6.3-1.7-12.3-4.1-17.1-8.7 c-3-2.9-6.7-5.9-5.3-10.5C29.9,47.1,34.9,48.7,38.5,48.3z" />
        <path class="filled" d="M257.9,48.5c1.2,0,2.3-0.1,3.5,0c5.9,0.4,7.9,4.1,4.8,9.2c-3.7,6.1-9.5,9.8-16.1,11.8 c-11.9,3.6-23.9,6.7-35.8,10.2c-4.6,1.3-9.1,3.2-13.6,4.7c-1.1,0.4-2.5,2.4-3.6-0.2c-0.8-1.9-0.9-3.2,1.2-4.5 c7.6-4.5,15.1-9,23.2-12.6c5.8-2.6,11.3-5.3,14.2-11.7c1.8-4,6.3-5.2,10.5-5.9c3.9-0.6,7.9-0.8,11.9-1.2 C257.9,48.3,257.9,48.4,257.9,48.5z" />
        <path class="filled" d="M59.2,78.2c12.9,0.9,25,4.9,36.8,9.7c2.8,1.2,1.5,3.3,1.3,5.1c-0.2,2.6-2,1.5-3.3,1.3 c-8.6-1.5-17.2-1-25.7,0.6c-6.2,1.2-11.9,0.2-16.5-4.7c-2.2-2.3-3.7-5-2.5-8.1c1.2-3.2,4.3-3.9,7.4-3.9 C57.6,78.2,58.4,78.2,59.2,78.2z" />
        <path class="filled" d="M212,93.2c-2.8,0.3-6.8,0.7-10.7,1.1c-1.1,0.1-2.9,1.4-3-1c0-1.8-1.5-4.2,1.1-5.3c13.1-5.4,26.3-10.4,40.8-9.8 c6.3,0.3,8.4,5.5,4.7,10.6c-4.5,6.1-10.9,7.2-17.8,6C222.4,94.1,217.8,93.5,212,93.2z" />
        <path class="filled" d="M207.8,183c-11.4,0-22,0-33.5,0c5.6-9.8,11-19,16.7-29C196.9,164,202.3,173.3,207.8,183z" />
        <path class="filled" d="M126.1,183.1c-11.5,0-22.1,0-33.6,0c5.7-9.8,11-19.2,16.7-29.1C115,163.8,120.3,173.1,126.1,183.1z" />
        <path class="filled" d="M150.2,229.5c-5.8-10-11-19.2-16.6-28.9c11.3,0,21.9,0,33.2,0C161.3,210.1,156,219.4,150.2,229.5z" />
        <path class="filled" d="M196.3,105.3c0.6-6,3.8-8.1,8.9-8.7c5.9-0.6,11.6-0.6,17.3,1.3c2.1,0.7,4.4,1.5,4.2,4.2 c-0.2,2.8-2.4,4.4-5,4.9c-3.9,0.8-8,0.6-11.9-0.3C205.4,105.8,201.1,104.7,196.3,105.3z" />
        <path class="filled" d="M99.5,104.8c-6.9-0.6-13,2.7-19.5,2.6c-2.8-0.1-5.7,0.2-8.3-1.3c-1.7-1-2.8-2.3-2.7-4.4 c0.1-2,1.6-2.8,3.2-3.4c7.6-2.9,15.3-2.5,23-0.5C98.7,98.7,97.6,102.5,99.5,104.8z" />
        <path class="filled" d="M189.8,118.7c6.4-7.1,8.4-7.6,15.6-4.5c1.4,0.6,3,1,2.6,3c-0.3,1.9-1.9,2.1-3.4,2.3c-0.8,0.1-1.6,0.3-2.5,0.3 C198.3,119.5,194.4,119.1,189.8,118.7z" />
        <path class="filled" d="M106.1,119.5c-5.8,0-10.4,0.1-15,0c-1.6,0-3.5-0.4-3.7-2.5c-0.2-1.9,1.6-2.2,2.9-2.8 C98,111,99.9,111.5,106.1,119.5z" />
    </g>
</svg></g>
  </defs>
  <rect
      width="256"
      height="256"
      fill="url(#Gradient)"
      ry="128"
      x="0"
      y="0" />
  <use xlink:href="#child-svg" filter="url(#alpha-to-white)"
       transform="matrix(8,0,0,8,64,64)" />
</svg>
